<svg version="1.1" viewBox="0 0 512.007 512.007" xmlns="http://www.w3.org/2000/svg" id="Capa_1"
    overflow="hidden"><circle cx="256.003" cy="256.003" r="256.003" fill="#3EBBC5"/><path d=" M 511.707 243.888 C 379.069 111.253 400.34 132.537 396.763 128.885 C 358.132 89.452 305.046 68.463 249.569 70.891 C 249.567 70.891 249.565 70.891 249.564 70.891 L 249.564 70.891 C 216.671 72.331 182.07 81.961 147.628 101.673 C 126.325 113.865 108.481 131.381 96.161 152.61 C 63.065 209.644 57.688 267.14 71.471 316.655 C 73.888 325.338 78.398 332.999 84.357 339.169 C 87.16 349.201 92.753 357.87 100.154 364.443 L 247.419 511.842 C 250.27 511.936 253.127 512.001 256.001 512.001 C 397.386 512.001 512.001 397.386 512.001 256.001 C 512 251.939 511.895 247.903 511.707 243.888 Z" fill="#1291AF"/><path d=" M 290.233 431.507 C 286.876 431.507 283.564 430.357 280.891 428.16 L 170.598 337.474 L 189.277 314.755 L 280.377 389.66 L 311.318 225.353 L 340.222 230.796 L 304.682 419.521 C 303.72 424.629 300.134 428.849 295.249 430.623 C 293.617 431.217 291.919 431.507 290.233 431.507 Z" fill="#2F3136"/><path d=" M 233.761 324.824 L 233.761 324.824 C 233.761 295.546 257.495 271.811 286.774 271.811 L 394.427 271.811 C 434.644 271.811 460.439 228.66 440.998 193.454 C 391.966 104.661 275.331 58.416 160.5 124.14 C 139.197 136.332 121.353 153.848 109.033 175.077 C 75.937 232.111 70.56 289.607 84.343 339.122 C 90.718 362.024 111.628 377.837 135.402 377.837 L 180.75 377.837 C 210.026 377.837 233.761 354.101 233.761 324.824 Z" fill="#A8421F"/><path d=" M 440.997 193.455 C 410.868 138.893 355.211 100.412 290.135 94.087 L 290.135 271.812 L 394.426 271.812 C 434.643 271.811 460.438 228.661 440.997 193.455 Z" fill="#7E2D11"/><path d=" M 250.668 441.31 C 247.311 441.31 243.999 440.16 241.326 437.963 L 131.032 347.277 L 149.711 324.558 L 240.811 399.464 L 271.752 235.157 L 300.656 240.6 L 265.117 429.325 C 264.155 434.433 260.569 438.653 255.684 440.427 C 254.051 441.021 252.354 441.31 250.668 441.31 Z" fill="#575562"/><path d=" M 220.888 302.358 L 220.888 302.358 C 220.888 273.08 244.622 249.345 273.901 249.345 L 381.554 249.345 C 421.771 249.345 447.566 206.194 428.125 170.988 C 379.094 82.195 262.459 35.95 147.628 101.674 C 126.325 113.866 108.481 131.382 96.161 152.611 C 63.065 209.645 57.688 267.141 71.471 316.656 C 77.846 339.558 98.756 355.371 122.53 355.371 L 167.878 355.371 C 197.154 355.37 220.888 331.635 220.888 302.358 Z" fill="#E5532F"/><path d=" M 428.125 170.989 C 393.8 108.827 326.34 67.529 249.564 70.892 L 249.564 255.267 C 256.854 251.492 265.124 249.346 273.9 249.346 L 381.553 249.346 C 421.771 249.346 447.566 206.195 428.125 170.989 Z" fill="#CF4625"/><circle cx="140.37" cy="268.366" r="55.209" fill="#E86B44"/><circle cx="140.37" cy="268.366" r="26.947" fill="#EC8667"/><g></g><g></g><g></g><g></g><g></g><g></g><g></g><g></g><g></g><g></g><g></g><g></g><g></g><g></g><g></g></svg>